<svg width="800" height="800" viewBox="0 0 800 800" fill="none" xmlns="http://www.w3.org/2000/svg">
<rect x="6" y="12" width="788.514" height="65.0837" rx="32.5418" fill="white"/>
<rect x="6.00049" y="12.0029" width="62.5805" height="405.521" rx="31.2902" fill="white"/>
<rect x="731.933" y="12.0017" width="62.5805" height="220.283" rx="31.2902" fill="white"/>
<rect x="449.07" y="174.711" width="345.444" height="57.574" rx="28.787" fill="white"/>
<rect x="449.072" y="492.619" width="60.0773" height="170.219" rx="30.0386" fill="white"/>
<rect x="283.857" y="605.264" width="225.29" height="57.574" rx="28.787" fill="white"/>
<rect x="283.857" y="492.62" width="67.5869" height="170.219" rx="33.7934" fill="white"/>
<rect x="186.232" y="174.711" width="165.212" height="57.574" rx="28.787" fill="white"/>
<rect x="449.072" y="367.459" width="345.444" height="50.0644" rx="25.0322" fill="white"/>
<rect x="6.00244" y="367.459" width="345.444" height="50.0644" rx="25.0322" fill="white"/>
<rect x="731.933" y="367.459" width="62.5805" height="420.541" rx="31.2902" fill="white"/>
<rect x="6.00049" y="487.613" width="345.444" height="47.5612" rx="23.7806" fill="white"/>
<rect x="6.00049" y="487.614" width="62.5805" height="300.386" rx="31.2902" fill="white"/>
<rect x="6.00195" y="730.426" width="788.514" height="57.574" rx="28.787" fill="white"/>
<rect x="283.857" y="174.711" width="67.5869" height="242.812" rx="33.7934" fill="white"/>
<rect x="449.072" y="174.711" width="60.0772" height="242.812" rx="30.0386" fill="white"/>
</svg>
