<svg width="30" height="36" viewBox="0 0 30 36" fill="none" xmlns="http://www.w3.org/2000/svg">
<path d="M25.5067 6.7274C22.7009 3.81751 18.9643 2.21707 14.9933 2.21707C6.79687 2.21707 0.127232 9.11767 0.127232 17.5979C0.127232 20.3069 0.810268 22.9535 2.10938 25.2884L0 33.2559L7.8817 31.1151C10.0513 32.3414 12.4955 32.9857 14.9866 32.9857H14.9933C23.183 32.9857 30 26.0851 30 17.6049C30 13.4964 28.3125 9.6373 25.5067 6.7274ZM14.9933 30.3945C12.7701 30.3945 10.5937 29.7779 8.69866 28.614L8.25 28.3368L3.57589 29.6047L4.82143 24.8865L4.52679 24.4015C3.28795 22.3646 2.63839 20.0159 2.63839 17.5979C2.63839 10.5518 8.18303 4.81519 15 4.81519C18.3013 4.81519 21.4018 6.14543 23.7321 8.56341C26.0625 10.9814 27.4955 14.1892 27.4888 17.6049C27.4888 24.6579 21.8036 30.3945 14.9933 30.3945ZM21.7701 20.8196C21.4018 20.6256 19.5737 19.6972 19.2321 19.5725C18.8906 19.4409 18.6429 19.3785 18.3951 19.7665C18.1473 20.1545 17.4375 21.0136 17.2165 21.2769C17.0022 21.5332 16.7812 21.5679 16.4129 21.3739C14.2299 20.2445 12.7969 19.3577 11.3571 16.8012C10.9754 16.1222 11.7388 16.1707 12.4487 14.7019C12.5692 14.4455 12.5089 14.2238 12.4152 14.0298C12.3214 13.8359 11.5781 11.9444 11.2701 11.1754C10.9688 10.4271 10.6607 10.531 10.433 10.5172C10.2188 10.5033 9.97098 10.5033 9.72321 10.5033C9.47545 10.5033 9.07366 10.6003 8.73214 10.9814C8.39062 11.3694 7.43304 12.2978 7.43304 14.1892C7.43304 16.0806 8.76562 17.9097 8.94643 18.1661C9.13393 18.4224 11.5647 22.3023 15.2946 23.972C17.6518 25.0251 18.5759 25.1152 19.7545 24.935C20.471 24.8242 21.9509 24.0066 22.2589 23.1059C22.567 22.2053 22.567 21.4362 22.4732 21.2769C22.3862 21.1037 22.1384 21.0067 21.7701 20.8196Z" fill="#003952"/>
</svg>
